#!OML:ASF I:\Actors\actors\Patient Classification 2\Patient 1\Session 1\actor1.ASF
:FULLY-SPECIFIED
:DEGREES
410
root -2.35879 17.2417 5.98282 -1.08791 39.1582 -2.52691
lowerback 14.5079 0.0894552 14.4226
upperback 0.912709 2.86549 4.04143
thorax -6.72631 1.05785 -4.30616
lowerneck -11.4356 3.14013 1.52497
upperneck 31.7285 7.02981 -6.99804
head 12.7785 2.63886 -1.90928
rclavicle 2.3059e-014 4.92986e-014
rhumerus 25.3653 60.6245 -61.4464
rradius 76.3121
rwrist -9.17436
rhand -2.79247 -37.8159
rfingers 7.12502
rthumb 22.9131 -66.4745
lclavicle 2.3059e-014 4.92986e-014
lhumerus 33.8693 27.7057 70.1082
lradius 27.3502
lwrist -32.6745
lhand 18.0595 -19.5993
lfingers 7.12502
lthumb 42.7232 4.74374
rfemur 36.0472 -25.571 21.9824
rtibia -42.0877
rfoot -0.949255 -28.2306
rtoes -8.35346
lfemur 18.5294 -10.588 -9.96353
ltibia -44.6736
lfoot 26.6589 1.77325
ltoes -11.7655
411
root -2.34985 17.2417 5.98536 -0.971003 39.1325 -2.53372
lowerback 14.5417 0.120363 14.4258
upperback 0.810337 2.92453 4.04081
thorax -6.84811 1.07321 -4.32144
lowerneck -11.4553 3.19497 1.6591
upperneck 31.8876 7.1281 -7.08428
head 12.8648 2.6859 -1.9536
rclavicle 1.27222e-014 -1.74931e-014
rhumerus 24.9436 60.8419 -61.7655
rradius 76.3685
rwrist -9.65745
rhand -3.3244 -38.2931
rfingers 7.12502
rthumb 22.4026 -67.014
lclavicle 1.27222e-014 -1.74931e-014
lhumerus 33.5022 27.4842 69.6762
lradius 27.3495
lwrist -32.4335
lhand 17.9377 -19.4239
lfingers 7.12502
lthumb 42.6093 4.95862
rfemur 35.936 -25.5967 22.0156
rtibia -42.1188
rfoot -0.894202 -28.1974
rtoes -8.36895
lfemur 18.4489 -10.6206 -9.96173
ltibia -44.7193
lfoot 26.6231 1.79893
ltoes -11.8209
412
root -2.34227 17.241 5.99039 -0.903008 39.1587 -2.50808
lowerback 14.5973 0.132151 14.3614
upperback 0.767252 2.946 4.05334
thorax -6.92694 1.07852 -4.27897
lowerneck -11.6975 3.29229 1.60844
upperneck 32.1766 7.26904 -6.92911
head 13.0389 2.74996 -1.86352
rclavicle 1.96797e-014 -4.77083e-014
rhumerus 24.7293 60.9947 -61.9204
rradius 76.3918
rwrist -9.81775
rhand -3.27343 -38.5607
rfingers 7.12502
rthumb 22.4515 -67.2757
lclavicle 1.96797e-014 -4.77083e-014
lhumerus 33.1599 27.251 69.2074
lradius 27.3731
lwrist -32.0132
lhand 17.8528 -19.3253
lfingers 7.12502
lthumb 42.5299 5.08473
rfemur 35.909 -25.6412 21.9937
rtibia -42.1169
rfoot -0.939975 -28.2032
rtoes -8.31443
lfemur 18.4199 -10.6797 -9.99254
ltibia -44.7276
lfoot 26.558 1.81159
ltoes -11.9361
413
root -2.33741 17.2405 6.00119 -0.841684 39.2104 -2.39469
lowerback 14.6419 0.149717 14.2311
upperback 0.772999 2.95123 4.01409
thorax -6.94801 1.08291 -4.25302
lowerneck -11.9378 3.38447 1.61146
upperneck 32.4007 7.3752 -6.76205
head 13.1847 2.80703 -1.78161
rclavicle -7.196e-014 -2.06736e-014
rhumerus 24.4812 60.928 -62.2244
rradius 76.2783
rwrist -9.52717
rhand -2.36686 -38.285
rfingers 7.12502
rthumb 23.3215 -66.8924
lclavicle -7.196e-014 -2.06736e-014
lhumerus 32.9517 27.0384 68.8208
lradius 27.4022
lwrist -31.8251
lhand 17.8993 -19.3182
lfingers 7.12502
lthumb 42.5733 5.07685
rfemur 35.9802 -25.6646 21.8822
rtibia -42.1016
rfoot -1.04428 -28.2037
rtoes -8.31911
lfemur 18.4669 -10.7297 -10.0971
ltibia -44.7217
lfoot 26.5054 1.78033
ltoes -12.1129
414
root -2.33906 17.2434 6.02566 -0.909218 39.2784 -2.30281
lowerback 14.6695 0.187775 13.9721
upperback 0.847435 2.95278 3.99606
thorax -6.89107 1.09818 -4.13211
lowerneck -12.0725 3.45141 1.79868
upperneck 32.5011 7.44565 -6.78525
head 13.2698 2.85213 -1.81166
rclavicle 2.50469e-014 -1.59028e-014
rhumerus 24.0792 60.4685 -62.8432
rradius 75.8657
rwrist -8.10094
rhand 0.52399 -36.9309
rfingers 7.12502
rthumb 26.0922 -65.1586
lclavicle 2.50469e-014 -1.59028e-014
lhumerus 32.7331 26.6623 68.3231
lradius 27.4596
lwrist -31.6428
lhand 17.9294 -19.3378
lfingers 7.12502
lthumb 42.6015 5.04745
rfemur 36.2019 -25.6514 21.7807
rtibia -42.0493
rfoot -1.22691 -28.2011
rtoes -8.3961
lfemur 18.6763 -10.7009 -10.1669
ltibia -44.7035
lfoot 26.4482 1.61667
ltoes -12.3313
415
root -2.33241 17.2423 6.02793 -0.784445 39.342 -2.30252
lowerback 14.5262 0.226434 14.025
upperback 0.869034 2.97984 3.96098
thorax -6.77738 1.11726 -4.19907
lowerneck -12.1797 3.50303 2.015
upperneck 32.5504 7.50136 -6.87344
head 13.3311 2.8879 -1.87441
rclavicle -2.50469e-014 -3.18055e-015
rhumerus 24.0312 60.3844 -62.9819
rradius 75.7899
rwrist -8.29521
rhand -2.18287 -38.3013
rfingers 7.12502
rthumb 23.498 -66.8862
lclavicle -2.50469e-014 -3.18055e-015
lhumerus 32.5549 26.2566 67.8836
lradius 27.5168
lwrist -31.3334
lhand 17.9791 -19.3342
lfingers 7.12502
lthumb 42.6481 5.03497
rfemur 36.0635 -25.7365 21.81
rtibia -42.018
rfoot -1.23248 -28.1735
rtoes -8.45919
lfemur 18.5553 -10.7281 -10.1635
ltibia -44.7304
lfoot 26.4907 1.5561
ltoes -12.5925
